<svg xmlns="http://www.w3.org/2000/svg" xmlns:xlink="http://www.w3.org/1999/xlink" width="500" zoomAndPan="magnify" viewBox="0 0 375 374.999991" height="500" preserveAspectRatio="xMidYMid meet" version="1.0"><defs><clipPath id="9a8fb27c9e"><path d="M 151 79.695312 L 223 79.695312 L 223 141 L 151 141 Z M 151 79.695312 " clip-rule="nonzero"/></clipPath><clipPath id="b3cd6a8a3f"><path d="M 96 133 L 278 133 L 278 294.945312 L 96 294.945312 Z M 96 133 " clip-rule="nonzero"/></clipPath></defs><rect x="-37.5" width="450" fill="#ffffff" y="-37.499999" height="449.999989" fill-opacity="1"/><rect x="-37.5" width="450" fill="#000000" y="-37.499999" height="449.999989" fill-opacity="1"/><path fill="#7eb809" d="M 87.511719 284.871094 C 87.679688 284.871094 87.847656 284.871094 88.183594 284.871094 C 89.695312 284.871094 91.207031 283.699219 91.542969 282.1875 L 98.261719 246.589844 L 118.085938 238.363281 C 117.078125 236.347656 116.238281 234.335938 115.398438 232.152344 L 93.894531 241.050781 C 92.886719 241.554688 92.046875 242.394531 91.878906 243.570312 L 84.824219 280.84375 C 84.488281 282.691406 85.664062 284.539062 87.511719 284.871094 Z M 87.511719 284.871094 " fill-opacity="1" fill-rule="nonzero"/><path fill="#7eb809" d="M 97.085938 172.042969 C 97.421875 173.21875 98.261719 174.058594 99.4375 174.394531 L 114.558594 178.757812 C 115.230469 176.578125 116.238281 174.5625 117.078125 172.546875 L 103.132812 168.515625 L 94.734375 139.636719 C 94.230469 137.792969 92.382812 136.785156 90.535156 137.289062 C 88.6875 137.792969 87.679688 139.636719 88.183594 141.484375 Z M 97.085938 172.042969 " fill-opacity="1" fill-rule="nonzero"/><g clip-path="url(#9a8fb27c9e)"><path fill="#7eb809" d="M 154.703125 86.75 C 154.871094 86.75 175.699219 91.617188 181.410156 107.570312 C 167.46875 110.253906 157.054688 122.511719 157.054688 137.121094 C 157.054688 138.292969 157.558594 139.300781 158.566406 139.972656 C 159.070312 140.308594 159.742188 140.476562 160.414062 140.476562 L 214.167969 140.476562 C 214.839844 140.476562 215.511719 140.308594 216.015625 139.972656 C 216.855469 139.300781 217.527344 138.292969 217.527344 137.121094 C 217.527344 122.511719 207.113281 110.253906 193.167969 107.570312 C 198.882812 91.617188 219.542969 86.75 219.878906 86.75 C 221.726562 86.414062 222.902344 84.566406 222.398438 82.71875 C 222.0625 80.871094 220.214844 79.695312 218.367188 80.199219 C 217.527344 80.367188 194.511719 85.574219 187.289062 104.210938 C 180.066406 85.574219 157.222656 80.367188 156.046875 80.03125 C 154.199219 79.695312 152.519531 80.703125 152.015625 82.550781 C 151.679688 84.398438 152.855469 86.246094 154.703125 86.75 Z M 199.722656 117.140625 C 198.375 117.644531 197.367188 118.816406 197.367188 120.328125 C 197.367188 122.175781 198.882812 123.6875 200.730469 123.6875 C 201.402344 123.6875 201.90625 123.519531 202.410156 123.183594 C 203.25 122.679688 203.921875 121.671875 204.089844 120.664062 C 207.449219 124.191406 209.800781 128.722656 210.640625 133.761719 L 163.941406 133.761719 C 164.613281 128.722656 166.964844 124.191406 170.492188 120.664062 C 170.660156 121.671875 171.164062 122.679688 172.171875 123.183594 C 172.675781 123.519531 173.179688 123.6875 173.851562 123.6875 C 175.699219 123.6875 177.210938 122.175781 177.210938 120.328125 C 177.210938 118.816406 176.203125 117.644531 174.859375 117.140625 C 178.386719 114.957031 182.753906 113.613281 187.289062 113.613281 C 191.824219 113.613281 196.023438 114.957031 199.722656 117.140625 Z M 199.722656 117.140625 " fill-opacity="1" fill-rule="nonzero"/></g><path fill="#7eb809" d="M 260.527344 179.597656 L 278.667969 174.394531 C 279.84375 174.058594 280.683594 173.21875 281.019531 172.042969 L 289.757812 141.316406 C 290.261719 139.46875 289.253906 137.625 287.40625 137.121094 C 285.554688 136.617188 283.707031 137.625 283.203125 139.46875 L 274.972656 168.347656 L 258.007812 173.21875 C 259.015625 175.402344 259.855469 177.582031 260.527344 179.597656 Z M 260.527344 179.597656 " fill-opacity="1" fill-rule="nonzero"/><path fill="#7eb809" d="M 282.699219 241.890625 C 282.53125 240.714844 281.691406 239.875 280.683594 239.371094 L 259.855469 230.640625 C 259.015625 232.824219 258.175781 234.839844 257.335938 236.851562 L 276.484375 244.746094 L 283.203125 280.339844 C 283.539062 282.019531 284.882812 283.027344 286.566406 283.027344 C 286.734375 283.027344 286.902344 283.027344 287.238281 283.027344 C 289.085938 282.691406 290.261719 280.84375 289.925781 279.164062 Z M 282.699219 241.890625 " fill-opacity="1" fill-rule="nonzero"/><g clip-path="url(#b3cd6a8a3f)"><path fill="#7eb809" d="M 127.828125 166.335938 C 123.460938 173.21875 120.101562 180.941406 118.421875 189.167969 L 105.652344 189.167969 C 100.613281 189.167969 96.75 193.703125 96.75 199.242188 L 96.75 209.316406 C 96.75 214.859375 100.78125 219.390625 105.652344 219.390625 L 118.421875 219.390625 C 120.269531 227.617188 123.460938 235.34375 127.996094 242.226562 L 118.925781 251.292969 C 115.398438 254.820312 115.734375 260.863281 119.765625 264.726562 L 126.820312 271.777344 C 129.003906 273.960938 131.691406 274.96875 134.378906 274.96875 C 136.5625 274.96875 138.746094 274.128906 140.425781 272.617188 L 149.496094 263.550781 C 156.382812 267.914062 164.109375 271.273438 172.339844 273.121094 L 172.339844 286.046875 C 172.339844 290.917969 176.875 294.945312 182.417969 294.945312 L 192.496094 294.945312 C 198.039062 294.945312 202.578125 290.917969 202.578125 286.046875 L 202.578125 273.121094 C 210.808594 271.273438 218.535156 268.082031 225.421875 263.550781 L 234.492188 272.617188 C 236.171875 274.296875 238.1875 274.96875 240.539062 274.96875 C 243.058594 274.96875 245.914062 273.960938 247.929688 271.777344 L 254.984375 264.726562 C 258.847656 260.695312 259.183594 254.820312 255.824219 251.292969 L 246.753906 242.226562 C 251.121094 235.34375 254.480469 227.617188 256.328125 219.390625 L 269.09375 219.390625 C 273.964844 219.390625 277.996094 214.859375 277.996094 209.316406 L 277.996094 199.242188 C 277.996094 193.703125 273.964844 189.167969 269.09375 189.167969 L 256.160156 189.167969 C 254.3125 180.941406 251.121094 173.21875 246.585938 166.335938 L 255.65625 157.269531 C 259.183594 153.742188 258.847656 147.699219 254.816406 143.835938 L 247.761719 136.785156 C 245.578125 134.601562 242.890625 133.59375 240.203125 133.59375 C 238.019531 133.59375 235.835938 134.433594 234.15625 135.945312 L 225.085938 145.011719 C 221.894531 148.03125 218.535156 150.71875 214 150.71875 L 160.246094 150.71875 C 155.375 150.71875 152.519531 148.367188 149.160156 145.011719 L 140.257812 135.777344 C 138.578125 134.097656 136.5625 133.425781 134.210938 133.425781 C 131.691406 133.425781 128.835938 134.433594 126.652344 136.617188 L 119.597656 143.667969 C 115.566406 147.53125 115.230469 153.574219 118.757812 157.101562 Z M 187.289062 170.699219 C 200.730469 170.699219 211.648438 181.277344 211.648438 194.207031 C 211.648438 196.054688 210.136719 197.5625 208.289062 197.5625 C 206.441406 197.5625 204.929688 196.054688 204.929688 194.207031 C 204.929688 184.972656 197.03125 177.414062 187.289062 177.414062 C 177.546875 177.414062 169.652344 184.972656 169.652344 194.207031 C 169.652344 196.054688 168.140625 197.5625 166.292969 197.5625 C 164.445312 197.5625 162.933594 196.054688 162.933594 194.207031 C 162.933594 181.277344 173.851562 170.699219 187.289062 170.699219 Z M 190.648438 204.28125 C 190.648438 206.128906 189.136719 207.636719 187.289062 207.636719 C 185.441406 207.636719 183.929688 206.128906 183.929688 204.28125 C 183.929688 202.433594 185.441406 200.921875 187.289062 200.921875 C 189.136719 200.921875 190.648438 202.433594 190.648438 204.28125 Z M 153.695312 200.921875 C 155.542969 200.921875 157.054688 202.433594 157.054688 204.28125 C 157.054688 220.902344 170.660156 234.503906 187.289062 234.503906 C 203.921875 234.503906 217.527344 220.902344 217.527344 204.28125 C 217.527344 202.433594 219.039062 200.921875 220.886719 200.921875 C 222.734375 200.921875 224.246094 202.433594 224.246094 204.28125 C 224.246094 224.597656 207.617188 241.21875 187.289062 241.21875 C 166.964844 241.21875 150.335938 224.597656 150.335938 204.28125 C 150.335938 202.433594 151.847656 200.921875 153.695312 200.921875 Z M 153.695312 200.921875 " fill-opacity="1" fill-rule="nonzero"/></g></svg>